<svg width="1920" height="1080" viewBox="0 0 1920 1080" fill="none" xmlns="http://www.w3.org/2000/svg">
<mask id="mask0_16_31" style="mask-type:alpha" maskUnits="userSpaceOnUse" x="0" y="0" width="1920" height="1080">
<rect width="1920" height="1080" fill="url(#paint0_linear_16_31)"/>
</mask>
<g mask="url(#mask0_16_31)">
<path opacity="0.3" d="M814 333C209.2 227 -17.3333 541.833 -55 712.5V1269C2.83333 1289.33 121.5 1330 133.5 1330C145.5 1330 1427.17 1289.33 2066.5 1269L2027.5 -115.5L1711 -176C1664 37.8333 1418.8 439 814 333Z" fill="url(#paint1_linear_16_31)"/>
<path d="M448.918 811.841C226.212 811.841 107.512 1089.18 76 1227.86L170.013 1408.99L2161 1424C2151.25 966.333 2096.03 51 1953.13 51C1774.5 51 1851.8 865.598 1677.88 865.598C1503.95 865.598 1519.1 595.841 1323.76 595.841C1128.42 595.841 947.71 1157.15 821.314 1157.15C694.919 1157.15 727.301 811.841 448.918 811.841Z" fill="url(#paint2_linear_16_31)"/>
<path d="M153.027 972.645C3.4104 972.645 -70.6646 1071.46 -89 1120.87C-60.8302 1181.49 -0.990089 1302.18 13.0115 1299.93C30.5135 1297.13 1548.18 1329.18 1607.19 1337.19C1654.4 1343.6 1937.23 1310.48 2072.74 1293.12C2084.91 1137.29 2090.55 825.626 2015.74 825.626C1922.23 825.626 2000.24 540 1775.21 540C1550.18 540 1577.69 942.199 1409.67 940.597C1241.65 938.995 1321.66 827.228 1075.63 839.647C829.603 852.065 850.606 1080.81 637.582 1080.81C424.558 1080.81 340.048 972.645 153.027 972.645Z" fill="url(#paint3_linear_16_31)"/>
</g>
<defs>
<linearGradient id="paint0_linear_16_31" x1="960" y1="0" x2="960" y2="1080" gradientUnits="userSpaceOnUse">
<stop stop-color="#E574BC"/>
<stop offset="1" stop-color="#C52184"/>
</linearGradient>
<linearGradient id="paint1_linear_16_31" x1="1005.75" y1="-176" x2="1005.75" y2="1330" gradientUnits="userSpaceOnUse">
<stop stop-color="#F9B4ED"/>
<stop offset="1" stop-color="#C52184"/>
</linearGradient>
<linearGradient id="paint2_linear_16_31" x1="1118.5" y1="51" x2="1118.5" y2="1424" gradientUnits="userSpaceOnUse">
<stop stop-color="#3D2E45"/>
<stop offset="1" stop-color="#8F20C4"/>
</linearGradient>
<linearGradient id="paint3_linear_16_31" x1="995.5" y1="540" x2="995.5" y2="1338" gradientUnits="userSpaceOnUse">
<stop stop-color="#334139"/>
<stop offset="1" stop-color="#1E2D24"/>
</linearGradient>
</defs>
</svg>
